<?xml version="1.0" standalone="no"?>
<!DOCTYPE svg PUBLIC "-//W3C//DTD SVG 20010904//EN"
 "http://www.w3.org/TR/2001/REC-SVG-20010904/DTD/svg10.dtd">
<svg version="1.0" xmlns="http://www.w3.org/2000/svg"
 width="400.000000pt" height="400.000000pt" viewBox="0 0 400.000000 400.000000"
 preserveAspectRatio="xMidYMid meet">
<metadata>
Created by potrace 1.14, written by Peter Selinger 2001-2017
</metadata>
<g transform="translate(0.000000,400.000000) scale(0.100000,-0.100000)"
fill="#000000" stroke="none">
<path d="M983 3987 c-6 -7 -24 -22 -40 -34 -76 -58 -133 -143 -119 -179 3 -7
1 -14 -4 -16 -5 -2 -12 -19 -15 -38 -3 -19 -15 -73 -25 -119 -10 -47 -16 -89
-14 -93 3 -4 1 -8 -4 -8 -5 0 -9 -6 -9 -12 0 -7 -4 -29 -8 -48 -4 -19 -9 -44
-10 -55 -2 -11 -4 -21 -5 -22 -2 -2 -4 -12 -5 -23 -1 -11 -4 -21 -5 -22 -1 -2
-4 -12 -5 -23 -8 -56 -17 -102 -21 -115 -3 -8 -8 -28 -10 -45 -2 -16 -6 -41
-9 -55 -3 -14 -8 -41 -11 -60 -3 -19 -8 -48 -11 -65 -3 -16 -7 -41 -8 -55 -2
-14 -4 -25 -5 -25 -1 0 -3 -16 -4 -35 -4 -57 -14 -70 -42 -60 -16 6 -24 6 -24
-1 0 -5 -6 -9 -12 -8 -21 4 -67 -23 -73 -43 -4 -10 -10 -18 -15 -18 -8 0 -76
-98 -80 -115 -1 -5 -8 -17 -16 -26 -8 -9 -11 -19 -7 -22 3 -4 2 -7 -4 -7 -5 0
-10 -6 -11 -12 -3 -24 -10 -63 -13 -68 -5 -11 -4 -150 2 -150 3 0 5 -10 6 -22
2 -66 7 -104 16 -115 5 -7 7 -13 3 -13 -10 0 44 -134 57 -142 7 -4 8 -8 4 -8
-10 0 40 -86 70 -118 13 -14 21 -27 19 -30 -3 -2 0 -10 7 -17 7 -7 23 -26 36
-43 13 -17 30 -28 38 -25 7 3 13 0 13 -6 0 -6 7 -8 16 -4 9 3 20 0 25 -8 5 -9
9 -9 9 -2 0 6 6 10 13 9 19 -3 37 -16 37 -27 0 -6 -5 -7 -11 -3 -8 4 -8 1 -1
-12 5 -11 8 -28 6 -39 -7 -35 -17 -129 -18 -162 -1 -18 -3 -33 -6 -33 -3 0 -5
-17 -6 -38 -1 -20 -4 -62 -7 -92 -4 -30 -9 -84 -12 -120 -5 -60 -12 -105 -15
-105 -1 0 -7 -64 -14 -163 -2 -35 -7 -66 -10 -69 -3 -4 -6 -17 -6 -29 0 -13
-10 -30 -22 -38 -12 -9 -19 -16 -14 -16 5 0 -1 -9 -14 -20 -13 -11 -21 -20
-18 -20 2 0 -19 -25 -49 -55 -29 -31 -53 -60 -53 -65 0 -5 -9 -11 -20 -15 -11
-3 -19 -10 -17 -14 1 -4 -10 -20 -25 -37 -71 -76 -108 -119 -108 -126 0 -4 -6
-8 -13 -8 -18 0 -47 -52 -42 -76 2 -10 4 -24 4 -29 1 -6 17 -28 36 -50 19 -22
35 -43 35 -47 0 -4 12 -19 27 -33 15 -14 25 -25 21 -25 -3 0 8 -15 25 -34 45
-46 120 -136 130 -152 7 -12 159 -14 940 -14 l933 0 -1 61 c0 33 3 63 8 66 4
2 5 9 1 14 -3 5 0 16 6 24 6 8 8 20 4 27 -4 7 -4 10 1 6 8 -7 63 26 77 47 5 6
8 6 8 0 0 -5 13 4 28 20 15 17 33 31 40 32 16 4 82 69 82 81 0 6 9 14 20 17
11 4 18 10 15 14 -2 5 9 21 25 37 16 16 30 34 30 40 0 6 7 17 15 24 8 7 13 16
10 20 -3 4 2 13 10 20 8 7 12 16 9 21 -3 5 -2 9 3 9 9 0 39 61 35 73 -1 4 2 7
7 7 9 0 27 57 23 73 -2 5 2 6 8 2 5 -3 10 -3 11 2 2 19 9 42 34 108 27 70 36
99 37 123 1 6 5 12 9 12 4 0 10 14 14 30 4 17 13 44 21 60 9 16 13 34 9 40 -3
5 -2 10 2 10 5 0 9 8 10 18 2 45 13 95 23 107 7 8 12 30 13 49 0 19 5 33 9 30
7 -4 13 35 9 59 0 4 4 7 10 7 5 0 7 5 4 10 -3 6 0 13 9 16 8 3 12 12 9 20 -3
8 0 14 7 14 6 0 10 6 7 13 -2 6 5 25 16 40 10 16 20 39 21 52 0 13 4 21 9 18
4 -2 8 2 8 9 1 7 3 24 4 38 1 13 7 26 12 27 5 2 8 16 5 32 -4 27 -2 29 30 25
18 -2 51 -7 73 -12 37 -7 85 -7 126 1 33 6 85 50 117 98 17 27 32 53 32 59 0
5 5 10 10 10 6 0 10 8 10 19 0 10 6 24 14 30 8 7 17 27 20 46 4 18 11 35 17
37 5 2 11 10 13 18 2 8 9 29 16 45 18 40 16 35 25 73 4 17 11 32 15 32 3 0 7
6 8 13 1 6 4 33 8 58 6 43 4 47 -25 68 -17 12 -31 19 -31 14 0 -4 -5 0 -11 10
-6 9 -14 15 -18 12 -5 -2 -14 2 -21 10 -7 8 -16 12 -21 9 -5 -3 -9 -1 -9 5 0
8 -29 23 -50 26 -3 0 -12 5 -20 10 -8 5 -49 24 -90 41 -50 20 -74 36 -72 45 9
34 20 157 26 295 1 28 5 55 7 60 3 5 4 23 3 39 -3 48 5 63 36 70 16 3 34 13
41 21 6 8 17 14 25 14 7 0 18 8 23 18 6 9 11 13 11 9 0 -5 11 5 26 22 14 16
24 33 24 37 -1 4 2 10 7 13 8 6 47 86 49 103 1 4 3 10 4 13 1 3 3 8 4 13 1 4
5 12 8 18 9 13 19 87 23 164 3 62 -21 193 -35 198 -6 2 -10 12 -10 22 0 23
-29 77 -75 139 -40 54 -210 208 -226 204 -4 -2 -11 6 -14 17 -4 11 -10 18 -15
15 -5 -3 -11 -1 -15 5 -10 16 -2246 13 -2262 -3z"/>
</g>
</svg>
